<?xml version="1.0" encoding="UTF-8"?>
<svg width="165px" height="86px" viewBox="0 0 165 86" version="1.1" xmlns="http://www.w3.org/2000/svg" xmlns:xlink="http://www.w3.org/1999/xlink">
    <!-- Generator: Sketch 42 (36781) - http://www.bohemiancoding.com/sketch -->
    <title>logo</title>
    <desc>Created with Sketch.</desc>
    <defs></defs>
    <g id="Page-1" stroke="none" stroke-width="1" fill="none" fill-rule="evenodd">
        <g id="Home-Copy" transform="translate(-140.000000, -34.000000)" fill="#000000">
            <path d="M246.27342,34.2496206 L243.033843,34.2496206 L243.033843,64.1175072 L240.025302,64.1175072 C240.024035,64.704179 240.005873,65.2866271 239.978419,65.8665409 L243.033843,65.8665409 L243.033843,72.8630981 L238.980359,72.8630981 C238.835486,73.454416 238.678787,74.0389759 238.50477,74.6121318 L243.033843,74.6121318 L243.033843,81.6082667 L235.3484,81.6082667 C235.328971,81.6390997 235.310809,81.6711998 235.29138,81.7016104 C234.918005,82.2840585 234.528158,82.8352512 234.124795,83.3573004 L243.033843,83.3573004 L243.033843,90.3538576 L202.079591,90.3538576 L202.079591,83.3573004 L210.988639,83.3573004 C210.585276,82.8352512 210.195851,82.2840585 209.822054,81.7016104 C209.802625,81.6711998 209.784463,81.6390997 209.765034,81.6082667 L202.079591,81.6082667 L202.079591,74.6121318 L206.608664,74.6121318 C206.434647,74.0389759 206.277948,73.454416 206.133075,72.8630981 L202.079591,72.8630981 L202.079591,65.8665409 L205.135015,65.8665409 C205.107561,65.2866271 205.089399,64.704179 205.088132,64.1175072 L202.079591,64.1175072 L202.079591,34.2496206 L198.840014,34.2496206 L198.840014,106.097695 L202.079591,106.097695 L202.079591,100.848482 L243.033843,100.848482 L243.033843,106.097695 L246.27342,106.097695 L246.27342,34.2496206 Z M207.920122,64.0343004 C207.920122,64.6509604 207.936172,65.2621296 207.967005,65.8665409 C207.98221,66.160088 208.001217,66.4519456 208.02318,66.7425361 C208.02487,66.7644993 208.026137,66.7864626 208.028249,66.8088482 C208.050212,67.0947926 208.075977,67.3794699 208.10512,67.6620353 C208.107654,67.6882223 208.110611,67.7139868 208.113145,67.7397514 C208.172699,68.3074165 208.245347,68.8679014 208.331088,69.4203612 C208.336156,69.453306 208.341647,69.4862509 208.346716,69.5196181 C208.433724,70.0699661 208.533826,70.6127114 208.646176,71.1470093 C208.651667,71.1731962 208.656735,71.1993831 208.662226,71.2255701 C208.718401,71.4882841 208.777111,71.748464 208.838777,72.0069544 C208.845534,72.033986 208.852292,72.0610177 208.858628,72.0880494 C208.921561,72.3482292 208.987028,72.6067196 209.055875,72.8622534 C209.216375,73.459062 209.393348,74.0423549 209.585104,74.6121318 C209.697877,74.9474935 209.815718,75.2782092 209.938628,75.603434 C209.939472,75.6059682 209.940317,75.6085024 209.941584,75.6110366 C210.063227,75.9337272 210.19036,76.250927 210.32214,76.5634807 C210.324251,76.5681268 210.326363,76.5731952 210.328475,76.5778413 C210.458987,76.8874384 210.594568,77.1911224 210.734373,77.4897379 C210.738174,77.4969182 210.741553,77.5045208 210.744932,77.5117011 C210.883892,77.8077824 211.027497,78.0983729 211.175327,78.3830502 C211.179973,78.39192 211.184619,78.4007897 211.188843,78.4096595 C211.33625,78.6926473 211.488303,78.969722 211.643735,79.2417282 C211.649226,79.2510203 211.654717,79.2603125 211.659785,79.270027 C211.816062,79.5407661 211.97614,79.8060144 212.14002,80.0653495 C212.14551,80.0737969 212.150579,80.0822443 212.15607,80.091114 C212.321639,80.3517162 212.491431,80.6064053 212.665025,80.8543364 C212.668404,80.8598272 212.672206,80.865318 212.676007,80.8708088 C212.85298,81.123386 213.033754,81.3692053 213.21833,81.6082667 C213.708701,82.2422439 214.225682,82.8263814 214.766738,83.3577227 C215.185729,83.7695334 215.619503,84.1483992 216.065525,84.4934754 C216.073128,84.4993885 216.080308,84.5048794 216.087911,84.5107925 C216.379769,84.7354933 216.676695,84.9449888 216.979111,85.1397013 C216.992205,85.1481487 217.005721,85.1565961 217.018814,85.1646211 C217.167066,85.2596543 217.317007,85.3513086 217.467793,85.4387392 L217.467793,85.4387392 C217.622381,85.5278592 217.778235,85.6131779 217.935357,85.6946953 C217.947606,85.7010309 217.960277,85.7073664 217.972525,85.713702 C218.112752,85.7855049 218.253824,85.8539288 218.395318,85.9193961 C218.416436,85.9291106 218.437555,85.9392475 218.458251,85.9485396 C218.761935,86.0866546 219.069842,86.2091419 219.381129,86.3164238 C219.412807,86.3274054 219.444907,86.338387 219.476585,86.3489463 C219.62188,86.3975188 219.76802,86.4435571 219.914582,86.4853718 C219.923452,86.4874836 219.932322,86.4904402 219.941191,86.4929744 C220.059455,86.5263416 220.178986,86.5550628 220.298516,86.5837839 C219.837288,85.4049496 219.394222,83.6326855 218.997195,80.9759789 C218.599745,78.3184276 218.308309,75.1485416 218.133871,71.6944007 C216.353159,71.5875411 214.865995,71.1909357 214.050821,70.5865244 C213.579034,70.2368022 213.480199,69.5715696 213.829922,69.1002048 C214.179644,68.62884 214.844876,68.5300055 215.316241,68.8793053 C215.634708,69.1154101 216.580394,69.445281 218.042639,69.5588985 C218.009694,68.6220821 217.985196,67.6687932 217.969146,66.7024109 C216.150422,66.603154 214.629045,66.2031697 213.800778,65.5890439 C213.329413,65.239744 213.230579,64.5740891 213.579879,64.1027243 C213.929178,63.6313595 214.594833,63.5325249 215.066198,63.8818248 C215.395647,64.1259546 216.398353,64.4697637 217.94845,64.5719772 C217.947606,64.39247 217.946338,64.2142299 217.946338,64.0343004 C217.946338,63.2461582 217.952252,62.4639291 217.963233,61.6893027 C216.258126,61.5676602 214.84023,61.1765457 214.050821,60.5915634 C213.579034,60.2422635 213.480199,59.5766086 213.829922,59.1052438 C214.179644,58.633879 214.844876,58.5354668 215.316241,58.8843443 C215.632174,59.1187596 216.566034,59.4452515 218.009272,59.5614033 C218.141473,54.8705633 218.480214,50.5497193 218.997195,47.0921994 C219.394645,44.433381 219.837711,42.6602722 220.299783,41.4818602 C213.288021,43.1742963 207.920122,52.6265121 207.920122,64.0343004 L207.920122,64.0343004 Z M222.794722,41.2951727 C222.785008,41.3027754 221.797507,42.1378006 220.966706,48.3394577 C220.539267,51.5296175 220.25459,55.4116191 220.135059,59.5681612 C221.628982,59.4579226 222.595364,59.1234057 222.917632,58.8847667 C223.388152,58.5354668 224.053807,58.633879 224.403529,59.1052438 C224.753252,59.5766086 224.654417,60.2418411 224.183052,60.5915634 C223.366189,61.1972418 221.874801,61.5942695 220.089021,61.7002844 C220.077617,62.4727989 220.071281,63.2508042 220.071281,64.0343004 C220.071281,64.2066273 220.072548,64.3781095 220.072971,64.550014 C221.459611,64.426682 222.359259,64.1107493 222.667589,63.8822472 C223.138109,63.5329473 223.804186,63.6309371 224.153909,64.1027243 C224.503209,64.5740891 224.404796,65.2393217 223.933009,65.5886216 C223.155426,66.1655788 221.767096,66.5541591 220.094089,66.6817148 C220.110562,67.6540103 220.135482,68.6157465 220.169271,69.560588 C221.643764,69.4482376 222.597476,69.1166772 222.917632,68.8797277 C223.388152,68.5300055 224.053807,68.6284176 224.403529,69.1002048 C224.753252,69.5711472 224.654417,70.2368022 224.183052,70.5861021 C223.392376,71.1723515 221.971101,71.563466 220.26177,71.6846861 C220.412979,74.6311385 220.650773,77.3697848 220.966706,79.7287207 C221.797507,85.9303777 222.785008,86.765403 222.794722,86.7730057 C222.772337,86.7552661 222.684906,86.7092278 222.556506,86.7092278 L222.556506,86.8570573 L222.556928,86.8570573 C222.716584,86.8570573 222.875395,86.8515665 223.033784,86.8435414 C223.077288,86.8414296 223.12037,86.838473 223.163874,86.8359388 C223.294386,86.8274914 223.424898,86.8165098 223.554988,86.8029939 C223.584976,86.8000373 223.614965,86.7975031 223.644531,86.7941241 C223.80123,86.7759622 223.957084,86.753999 224.112516,86.7286568 C224.146306,86.7227436 224.180096,86.7164081 224.213885,86.7104949 C224.342708,86.6876869 224.470686,86.6627671 224.598664,86.6348907 C224.634143,86.6268657 224.669622,86.6196854 224.704679,86.6116604 C224.861378,86.5757589 225.017233,86.5364785 225.172243,86.4929744 C225.181112,86.4904402 225.189982,86.4874836 225.198852,86.4853718 C225.345414,86.4435571 225.491554,86.3975188 225.636849,86.3489463 C225.668527,86.338387 225.700627,86.3274054 225.732305,86.3168462 C226.043592,86.2091419 226.351499,86.0866546 226.655183,85.9485396 C226.676302,85.9392475 226.696998,85.9291106 226.717694,85.9198185 C226.85961,85.8539288 227.000682,85.7855049 227.140909,85.713702 C227.153157,85.7073664 227.165828,85.7010309 227.178077,85.6946953 C227.488519,85.5337724 227.794315,85.356377 228.095042,85.1646211 C228.108136,85.1561737 228.121229,85.1481487 228.1339,85.1397013 C228.436317,84.9454111 228.733665,84.7354933 229.025523,84.5107925 C229.033126,84.5048794 229.040306,84.4993885 229.047909,84.4934754 C229.494354,84.1483992 229.927705,83.769111 230.346696,83.3577227 C230.887752,82.8263814 231.405155,82.2422439 231.895104,81.6082667 C232.07968,81.3692053 232.260454,81.123386 232.437427,80.8708088 C232.441228,80.865318 232.44503,80.8598272 232.448831,80.8543364 C232.622003,80.6064053 232.791795,80.3517162 232.957364,80.091114 C232.962855,80.0822443 232.967924,80.0737969 232.973414,80.0653495 C233.137294,79.8060144 233.297372,79.5407661 233.453649,79.270027 C233.458717,79.2603125 233.464208,79.2510203 233.469699,79.2417282 C233.625553,78.969722 233.777184,78.6926473 233.924591,78.4096595 C233.928815,78.4007897 233.933461,78.39192 233.938107,78.3830502 C234.085937,78.0983729 234.229542,77.8077824 234.368502,77.5117011 C234.371881,77.5045208 234.375682,77.4969182 234.379061,77.4897379 C234.518866,77.1911224 234.654446,76.8874384 234.784959,76.5778413 C234.787071,76.5731952 234.789182,76.5681268 234.791294,76.5634807 C234.923074,76.250927 235.050207,75.9337272 235.17185,75.6110366 C235.173117,75.6085024 235.173961,75.6059682 235.174806,75.603434 C235.297716,75.2782092 235.415557,74.9474935 235.52833,74.6121318 C235.720086,74.0423549 235.897059,73.459062 236.057559,72.8622534 C236.126406,72.6067196 236.191873,72.3482292 236.254806,72.0880494 C236.261564,72.0610177 236.267899,72.033986 236.274657,72.0069544 C236.336323,71.748464 236.395033,71.4882841 236.451208,71.2255701 C236.456699,71.1993831 236.461767,71.1731962 236.467258,71.1470093 C236.579608,70.6127114 236.67971,70.0699661 236.766718,69.5196181 C236.771787,69.4862509 236.777278,69.453306 236.782346,69.4203612 C236.868087,68.8679014 236.940735,68.3074165 237.000289,67.7397514 C237.002823,67.7139868 237.00578,67.6882223 237.008314,67.6620353 C237.037457,67.3794699 237.063222,67.0947926 237.085608,66.8088482 C237.087297,66.7864626 237.088564,66.7644993 237.090254,66.7425361 C237.112217,66.4519456 237.131224,66.160088 237.146429,65.8665409 C237.177262,65.2621296 237.193312,64.6509604 237.193312,64.0343004 C237.193312,51.4295158 230.640243,41.2115435 222.556928,41.2115435 L222.556506,41.2115435 L222.556506,41.3589506 C222.684906,41.3589506 222.772337,41.3129122 222.794722,41.2951727 L222.794722,41.2951727 Z M198.590394,106.347738 L246.523463,106.347738 L246.523463,34 L198.590394,34 L198.590394,106.347738 Z M202.079591,99.0990261 L243.03342,99.0990261 L243.03342,92.1028913 L202.079591,92.1028913 L202.079591,99.0990261 Z M274.845898,36.1274771 C274.527853,36.5988419 272.711663,35.6012042 272.114854,36.0252636 C272.114854,36.0252636 271.516356,36.8049584 272.925804,36.9418063 C274.293438,37.0748528 274.845898,36.1274771 274.845898,36.1274771 L274.845898,36.1274771 Z M291.646505,67.4478938 C292.040998,68.0506156 292.506872,68.1300212 292.923751,68.2381479 C296.018456,69.0414954 299.082749,69.0883784 302.080731,67.8035292 C302.539424,67.6067049 302.988826,67.3836936 303.458501,67.2177022 C303.792596,67.0994386 304.1533,67.0555122 304.462052,66.9875106 C305.075333,68.0514604 305.016624,68.9823636 304.139362,69.7578347 C303.468638,70.3504197 302.673738,70.8940097 301.838713,71.1892463 C300.177532,71.775918 298.420896,71.922058 296.668905,71.6466729 C295.073614,71.3962075 293.492261,71.0574669 291.903306,70.7656093 C291.790955,70.7449131 291.666356,70.7909515 291.37999,70.8268529 C291.726755,71.105617 291.946388,71.3417218 292.214592,71.4887065 C294.92494,72.973759 297.783539,73.6934773 300.860926,72.9678459 C301.699753,72.7701768 302.486628,72.3575214 303.302647,72.0576388 C303.670109,71.9229028 304.050664,71.8223787 304.421505,71.7074941 C305.125595,72.8407125 304.832893,73.7602118 304.151188,74.5698948 C303.281106,75.6030116 302.12339,76.1318187 300.773073,76.2382559 C298.784556,76.3953775 296.875022,76.0182012 295.01575,75.3563476 C293.649383,74.8701998 292.300756,74.3321006 290.673365,73.7137511 C292.003408,75.103348 293.412433,75.896981 294.929586,76.4376145 C296.212746,76.8950411 297.566441,77.1788736 298.907888,77.4411653 C300.082499,77.6713569 301.220786,77.3638717 302.31937,76.9284083 C302.929272,76.6863904 303.542553,76.4532422 304.116976,76.2306532 C304.893714,77.1053813 304.855701,78.5304573 304.064602,79.4491118 C303.363046,80.2630186 302.477758,80.8433548 301.395224,80.9160024 C300.407724,80.9823145 299.383477,81.0144146 298.420051,80.8294166 C295.989735,80.3626979 293.713161,79.4558697 291.668891,78.0282595 C290.880748,77.4779115 290.059239,77.0175284 288.938692,76.8519594 C289.087788,77.1830973 289.179865,77.4322956 289.312911,77.6629095 C289.394429,77.8044035 289.507201,77.9264683 289.634335,78.0295266 C292.61331,80.44506 295.803047,82.3723338 299.798666,82.4914421 C300.826292,82.5222751 301.767332,82.2337965 302.711329,81.9111059 C303.256608,81.7244184 303.793018,81.454524 304.364485,81.7713014 C304.789811,83.0113794 304.504289,84.1091188 303.541286,84.9040189 C302.015686,86.1622588 300.23244,86.3785122 298.354161,86.1272021 C295.91413,85.8007102 293.732167,84.801383 291.674804,83.4941482 C290.306748,82.624911 288.939959,81.7531395 287.565567,80.8931944 C287.29525,80.7242465 286.993256,80.6059829 286.556948,80.3905743 C286.627484,81.0883293 286.872036,81.5558928 287.192192,81.9596784 C289.350925,84.6810076 291.985668,86.6716369 295.498518,87.2882969 C295.744338,87.3313786 295.986778,87.3938894 296.228796,87.4555554 C296.346215,87.4855437 296.458987,87.5332715 296.59837,87.5814216 C296.81589,88.1524657 296.47546,88.5093683 296.041686,88.6377687 C295.336751,88.8455747 294.588734,89.0318398 293.86268,89.018324 C291.958214,88.9832673 290.325754,88.1186761 288.832677,87.0302289 C287.523752,86.075673 286.300147,85.0045429 285.03346,83.9912776 C284.687539,83.7142029 284.323878,83.4599363 283.792959,83.064598 C283.436057,85.8796933 277.689714,87.1375109 277.689714,92.7288434 C277.689714,93.8831803 278.056754,94.9306577 278.475322,95.9726442 C280.423292,100.819761 284.047648,103.832103 288.906169,105.492439 C289.408367,105.663921 289.902962,105.857367 290.433881,106.052079 C289.929149,107.382544 289.019364,108.012298 287.723956,107.983577 C287.028735,107.968371 286.311551,107.844195 285.64843,107.631743 C283.038184,106.79545 281.09486,105.055286 279.619945,102.819682 C278.708893,101.438533 277.997622,99.9247592 277.210747,98.4633594 C276.976754,98.0287408 276.789222,97.56878 276.531576,97.0146307 C276.138772,97.4424914 276.26675,97.8306493 276.344044,98.2086704 C276.742339,100.170156 277.718436,101.867661 278.852921,103.466753 C280.08962,105.210296 281.550598,106.766307 283.430988,107.8273 C284.543933,108.454941 285.748109,108.920393 287.077308,109.535364 C287.141085,110.352649 287.217534,111.335504 287.294828,112.328073 C286.023917,112.895738 284.75723,112.743685 283.492654,112.920658 C281.16244,111.746892 279.488588,109.869881 278.164036,107.665955 C276.630411,105.114418 275.541541,102.384641 275.115792,99.4153811 C275.069332,99.0914234 274.961205,98.7767579 274.812531,98.180794 C274.527009,99.1695619 274.588252,99.9146223 274.712007,100.63772 C275.388221,104.579698 276.980978,108.106064 279.654579,111.096865 C280.481157,112.02101 281.457254,112.811265 282.516557,113.805523 C282.360281,114.732625 282.176972,115.817271 281.969166,117.050591 C280.46215,116.852922 279.077622,116.670881 277.693093,116.489261 C274.637247,111.240049 273.284819,105.637312 272.854002,99.6865426 C272.403333,100.120739 272.446837,100.645745 272.442613,101.148787 C272.421917,103.573613 272.781776,105.951133 273.358734,108.298665 C274.026078,111.013236 275.027517,113.607432 276.300962,116.20205 C275.017802,117.806633 273.501917,119.108377 271.562394,120 C271.539586,119.990285 271.518046,119.978459 271.495238,119.968322 C271.495238,119.968322 269.896145,109.587315 269.256255,95.84002 C269.18234,95.9135124 269.130811,95.9717994 269.108425,96.0127693 C268.977068,96.2539425 268.852047,96.4984947 268.659446,96.8646894 C268.441926,96.4182444 268.303811,96.1352566 268.15936,95.8391753 C267.391914,96.4102194 267.410921,97.3491476 267.029943,98.2678022 C266.703029,97.7546227 266.465657,97.3825149 266.225751,97.0057609 C264.886416,98.1609426 264.266377,98.901357 264.036608,99.62192 C264.561614,99.8664722 265.066768,99.7275125 265.589662,99.5906646 C266.178445,99.436922 266.784546,99.3486467 267.30744,99.802272 C268.001394,100.403727 268.128105,101.55215 267.591695,102.450954 C267.504265,102.175991 267.420635,101.913699 267.318844,101.593543 C266.456787,101.956781 265.722286,101.793324 264.993276,101.330829 C264.640597,101.106973 264.18486,101.045307 263.738415,100.897899 C263.115419,101.154278 262.489889,101.384892 261.88759,101.66619 C261.176741,101.998595 260.476452,102.048435 259.753777,101.731658 C259.573425,101.652674 259.385893,101.590164 259.170484,101.508224 C258.109069,102.022248 257.614051,103.041004 256.94375,103.976554 C256.534051,104.079612 256.092675,104.190695 255.67115,104.297132 C255.636938,104.538306 255.609484,104.730484 255.572738,104.990664 C254.859355,104.28953 254.859355,104.28953 254.657884,103.165181 C255.021122,101.743484 255.101795,101.667457 256.543344,101.324915 C256.770156,101.271274 257.007528,101.221435 257.209421,101.112886 C257.385127,101.018275 257.516906,100.843414 257.761036,100.618291 C256.419167,100.268991 255.288905,100.472995 254.205526,100.973926 C253.620122,101.244243 253.070196,101.328294 252.492394,100.993355 C252.365683,100.919863 252.22081,100.878048 252.075093,100.817649 C252.00329,101.074028 251.953872,101.250578 251.891362,101.472745 C251.201632,99.7080835 252.118597,98.485745 253.889594,98.7311419 C254.085996,98.758596 254.27395,98.839691 254.469085,98.8836175 C254.989867,98.9997692 255.511072,99.1159209 256.034388,99.2198239 C256.471541,99.3064097 256.866879,99.2134883 257.386816,98.8633437 C256.921365,98.5655729 256.593183,98.2910325 256.216852,98.1275754 C255.481506,97.8082637 254.765166,97.492331 254.49485,96.6492807 C254.224533,96.7726128 254.040802,96.8566644 253.744298,96.9922451 C254.131612,95.9802468 254.777837,95.5718152 255.696492,95.4873412 C256.590227,95.4049791 257.046808,95.9228045 257.399065,96.6247833 C257.426519,96.679269 257.454395,96.7337547 257.482694,96.7873957 C257.94181,97.6633908 258.686448,98.3725499 259.610171,98.7252287 C260.36917,99.0153969 261.071994,98.9980797 261.676405,98.542765 C262.531281,97.8990732 263.360394,97.2199025 264.177257,96.528483 C264.380417,96.3565784 264.665517,96.1622883 264.561614,95.8062304 C264.140088,95.6140521 263.612126,95.7462539 263.244664,95.2808023 C264.178102,94.8035243 265.419447,94.8740601 265.857022,93.6348269 C265.420714,93.5609121 265.050718,93.4984014 264.416318,93.3911194 C265.922912,92.4352964 267.619149,91.3743032 267.824421,89.6045734 C266.237155,89.8812257 265.093377,90.0054024 264.886416,90.1270449 C264.671007,90.2533335 264.458978,90.3859577 264.137132,90.5815149 C264.176412,90.1312686 264.201332,89.8457466 264.227519,89.5471311 C263.361238,89.6332945 262.936334,90.3749761 262.209436,90.9134977 C262.19423,90.3597707 262.183249,89.9585193 262.172267,89.5521995 C260.586691,89.8267399 259.756311,90.1139515 259.239331,90.5688438 C259.534989,91.0055743 259.994106,91.1335524 260.465893,91.271245 C260.997656,91.4266771 261.511681,91.6420857 261.707238,92.2405839 C261.966995,93.0346392 261.528575,93.9900399 260.689326,94.4402862 C260.749725,94.1847524 260.807168,93.941045 260.877703,93.6432743 C260.035075,93.5233212 259.538791,93.0519564 259.186112,92.3499777 C259.015897,92.0103923 258.688983,91.7485229 258.409796,91.4245652 C257.803695,91.332911 257.207731,91.2201382 256.606277,91.1580498 C255.895851,91.0845575 255.326074,90.7956565 254.910462,90.2098294 C254.806559,90.0641118 254.689562,89.9276863 254.559895,89.7629621 C253.490876,89.6666618 252.627975,90.2301032 251.667083,90.6461375 C251.299199,90.5346319 250.902594,90.4151012 250.52415,90.300639 C250.384346,90.4725435 250.273263,90.6102361 250.122899,90.7956565 C249.894397,89.9145929 249.894397,89.9145929 250.263548,88.9431421 C251.212613,88.0037915 251.310603,87.9822506 252.595875,88.3898376 C252.79819,88.4540378 253.00684,88.5262631 253.215069,88.5359776 C253.396266,88.544425 253.581264,88.4696655 253.876922,88.4084219 C252.993325,87.5079293 252.015961,87.1379332 250.936383,87.0213591 C250.352668,86.958426 249.88426,86.7666701 249.59029,86.2349064 C249.52609,86.1183323 249.432747,86.0178083 249.347005,85.9025013 C249.170877,86.068915 249.049657,86.1833773 248.897181,86.3274054 C249.185238,84.627789 250.472621,84.103628 251.739308,85.1240736 C251.879958,85.2372687 251.988507,85.3888995 252.120286,85.513921 C252.47212,85.8488603 252.824377,86.1829549 253.184236,86.5090245 C253.484541,86.7810307 253.836797,86.8938034 254.406152,86.8638152 C254.182718,86.4139912 254.055163,86.0461071 253.837642,85.7424231 C253.413583,85.1489934 253.002617,84.5669677 253.186348,83.7830492 C252.91772,83.7526386 252.734834,83.7323648 252.44002,83.69942 C253.215914,83.090785 253.911134,83.0747349 254.667599,83.4388178 C255.40379,83.7927637 255.517407,84.4106909 255.463766,85.1232289 C255.459542,85.1785593 255.455741,85.2338898 255.452785,85.2892202 C255.401255,86.187601 255.650031,87.0893607 256.205448,87.7972526 C256.662452,88.378856 257.218291,88.6943663 257.903375,88.622141 C258.871446,88.5199275 259.836562,88.3780112 260.797453,88.2208896 C261.036514,88.1820316 261.349491,88.1638697 261.435654,87.8369554 C261.196593,87.4901897 260.722694,87.3461616 260.653847,86.8110189 C261.605869,86.8752192 262.541418,87.5117306 263.462607,86.7493529 C263.156811,86.487906 262.897476,86.2657394 262.452721,85.8847618 C263.939885,85.8480156 265.591351,85.814226 266.618133,84.8199673 C265.476467,83.2022906 264.548942,81.3742737 263.852032,79.7122482 C261.647684,74.4550102 261.095646,67.3811594 264.909646,61.57653 C265.902638,59.0532923 269.347064,50.6422183 272.467111,47.1390825 C276.159468,42.993522 273.096864,40.8622436 272.06248,40.6738666 C271.028519,40.4854896 268.363365,40.4065065 267.355168,38.9936792 C267.355168,38.9936792 269.355089,39.518685 271.175081,39.0570347 C271.175081,39.0570347 270.332876,36.6875396 266.285727,37.9622519 C266.285727,37.9622519 266.416662,35.9712003 269.589927,35.7976062 C269.589927,35.7976062 271.158609,33.3639109 274.623309,34.3670394 C278.088009,35.3701679 278.009871,36.2081498 279.602205,37.5643795 C281.19454,38.9206092 283.22276,38.6528267 284.078904,37.9622519 C284.078904,37.9622519 283.159827,40.7304642 280.433852,40.300914 C280.433852,40.300914 281.361376,40.4453645 281.439092,41.425685 C281.516386,42.4055831 280.833413,45.9399744 282.282142,47.9141312 C282.282142,47.9141312 280.433852,47.1728721 280.307141,45.4242607 C280.307141,45.4242607 279.916448,48.6034389 277.734486,52.5741382 C276.376989,55.0441573 276.584795,57.8765698 277.159218,60.0103824 C277.471349,60.8610354 277.838811,61.7834912 278.344388,62.8892556 C278.743527,63.7627165 278.883332,64.0993453 279.455643,64.9043823 C280.270394,66.0502718 281.401501,66.4333613 282.606522,66.0291533 C283.123503,65.8559817 283.545028,65.466979 283.733405,64.9546443 C284.089463,63.9861502 283.550941,63.3787823 283.191082,62.6974997 C282.671145,61.7129555 282.746327,60.8669486 283.583464,60.1020367 C284.191676,59.5461979 284.897879,59.0773674 285.615063,58.6655567 C287.598934,57.5255804 289.604347,56.4223502 291.614827,55.329257 C293.88591,54.0946698 296.088569,52.7692731 298.068639,51.0844396 C299.236069,50.091448 300.123891,48.9185268 300.793347,47.557651 C301.14138,46.8493367 301.46576,46.1220158 302.122545,45.6645892 C303.285752,45.5851837 303.977171,45.9526455 304.353925,47.0279992 C305.009021,48.8999425 304.849365,50.7017725 303.695451,52.3781586 C302.460441,54.1723858 300.78321,55.472018 298.926472,56.5178058 C297.118307,57.5361396 295.223133,58.4003084 293.36555,59.3307893 C292.974858,59.5263465 292.580365,59.7155683 292.187561,59.9077466 C292.213748,60.0597997 292.211636,60.0488181 292.237823,60.2008713 C292.701163,60.2621149 293.17126,60.4048759 293.626997,60.3689745 C295.008147,60.2604254 296.337767,59.9026781 297.53772,59.1964757 C298.825104,58.4387441 300.112065,57.6687638 301.327223,56.8029055 C301.956554,56.3543487 302.446925,55.7013648 302.967707,55.1121589 C303.385009,54.6407941 303.821317,54.3189482 304.582428,54.628123 C305.218094,55.8888971 305.02127,57.1796595 304.417281,58.4345204 C304.071782,59.1521268 303.540019,59.7641408 302.906886,60.2473319 C300.616374,61.9972104 298.002749,62.9420518 295.237071,63.5122512 C294.241546,63.7175229 293.240529,63.8970302 292.036775,64.1276441 C292.843079,64.8439834 293.679794,64.9381719 294.403313,64.911985 C297.556304,64.7979451 300.607504,64.2547774 303.181849,62.2117743 C303.466949,61.9858064 303.772322,61.7847583 304.044751,61.5892011 C304.877242,62.2333152 305.158118,62.8833424 304.81093,63.7863692 C304.582428,64.3814884 304.200183,65.0036393 303.710234,65.3913748 C303.074145,65.8948397 302.29445,66.2652581 301.521935,66.5389538 C299.133434,67.3862278 296.649054,67.5653126 294.131729,67.4533846 C293.358792,67.4187503 292.583321,67.4478938 291.646505,67.4478938 L291.646505,67.4478938 Z M170.128999,36.1274771 C170.128999,36.1274771 170.681036,37.0748528 172.04867,36.9418063 C173.458118,36.8049584 172.85962,36.0252636 172.85962,36.0252636 C172.262811,35.6012042 170.446621,36.5988419 170.128999,36.1274771 L170.128999,36.1274771 Z M196.077293,86.3274054 C195.924817,86.1833773 195.803597,86.068915 195.627469,85.9025013 C195.541728,86.0178083 195.448384,86.1183323 195.384184,86.2349064 C195.090214,86.7666701 194.621806,86.958426 194.038091,87.0213591 C192.958514,87.1379332 191.98115,87.5079293 191.097552,88.4084219 C191.393211,88.4696655 191.578209,88.544425 191.759405,88.5359776 C191.967634,88.5262631 192.176284,88.4540378 192.3786,88.3898376 C193.663871,87.9822506 193.761861,88.0037915 194.710926,88.9431421 C195.080077,89.9145929 195.080077,89.9145929 194.851575,90.7956565 C194.701212,90.6102361 194.590128,90.4725435 194.450324,90.300639 C194.071881,90.4151012 193.675275,90.5346319 193.307391,90.6461375 C192.3465,90.2301032 191.483598,89.6666618 190.41458,89.7629621 C190.284912,89.9276863 190.167916,90.0641118 190.064013,90.2098294 C189.648401,90.7956565 189.078624,91.0845575 188.368198,91.1580498 C187.766743,91.2201382 187.170779,91.332911 186.564678,91.4245652 C186.285492,91.7485229 185.959,92.0103923 185.788362,92.3499777 C185.435683,93.0519564 184.939399,93.5233212 184.096771,93.6432743 C184.167307,93.941045 184.224749,94.1847524 184.285148,94.4402862 C183.445899,93.9900399 183.007479,93.0346392 183.267236,92.2405839 C183.462794,91.6420857 183.97724,91.4266771 184.508582,91.271245 C184.980369,91.1335524 185.439485,91.0055743 185.735144,90.5688438 C185.218163,90.1139515 184.387784,89.8267399 182.802207,89.5521995 C182.791226,89.9585193 182.780244,90.3597707 182.765039,90.9134977 C182.03814,90.3749761 181.613236,89.6332945 180.746955,89.5471311 C180.773142,89.8457466 180.798062,90.1312686 180.837342,90.5815149 C180.515497,90.3859577 180.303467,90.2533335 180.088058,90.1270449 C179.881097,90.0054024 178.737319,89.8812257 177.150053,89.6045734 C177.355325,91.3743032 179.051563,92.4352964 180.558578,93.3911194 C179.923756,93.4984014 179.55376,93.5609121 179.117452,93.6348269 C179.555027,94.8740601 180.796373,94.8035243 181.72981,95.2808023 C181.362348,95.7462539 180.834386,95.6140521 180.412861,95.8062304 C180.30938,96.1622883 180.594057,96.3565784 180.797217,96.528483 C181.614081,97.2199025 182.443193,97.8990732 183.298069,98.542765 C183.902903,98.9980797 184.605304,99.0153969 185.364303,98.7252287 C186.288026,98.3725499 187.032664,97.6633908 187.49178,96.7873957 C187.520079,96.7337547 187.547955,96.679269 187.575409,96.6247833 C187.927666,95.9228045 188.384248,95.4049791 189.277982,95.4873412 C190.196637,95.5718152 190.842863,95.9802468 191.230176,96.9922451 C190.933672,96.8566644 190.749941,96.7726128 190.479625,96.6492807 C190.209308,97.492331 189.492969,97.8082637 188.757623,98.1275754 C188.381291,98.2910325 188.05311,98.5655729 187.587658,98.8633437 C188.107595,99.2134883 188.503356,99.3064097 188.940086,99.2198239 C189.463403,99.1159209 189.984607,98.9997692 190.505389,98.8836175 C190.700524,98.839691 190.888479,98.758596 191.084881,98.7311419 C192.855878,98.485745 193.772843,99.7080835 193.083113,101.472745 C193.021024,101.250578 192.971185,101.074028 192.899382,100.817649 C192.753664,100.878048 192.608791,100.919863 192.48208,100.993355 C191.904278,101.328294 191.354353,101.244243 190.768948,100.973926 C189.685569,100.472995 188.555307,100.268991 187.213438,100.618291 C187.457568,100.843414 187.58977,101.018275 187.765053,101.112886 C187.966946,101.221435 188.204318,101.271274 188.431131,101.324915 C189.873101,101.667457 189.953352,101.743484 190.31659,103.165181 C190.115119,104.28953 190.115119,104.28953 189.401737,104.990664 C189.364991,104.730484 189.337536,104.538306 189.303325,104.297132 C188.881799,104.190695 188.440423,104.079612 188.030724,103.976554 C187.360423,103.041004 186.865406,102.022248 185.80399,101.508224 C185.588581,101.590164 185.401049,101.652674 185.22112,101.731658 C184.498022,102.048435 183.797733,101.998595 183.086884,101.66619 C182.485007,101.384892 181.859055,101.154278 181.23606,100.897899 C180.789615,101.045307 180.333878,101.106973 179.981199,101.330829 C179.252188,101.793324 178.517687,101.956781 177.65563,101.593543 C177.553839,101.913699 177.47021,102.175991 177.382779,102.450954 C176.846369,101.55215 176.973503,100.403727 177.667034,99.802272 C178.189928,99.3486467 178.796029,99.436922 179.384812,99.5906646 C179.907706,99.7275125 180.412861,99.8664722 180.937867,99.62192 C180.708097,98.901357 180.088058,98.1609426 178.748723,97.0057609 C178.508817,97.3825149 178.271445,97.7546227 177.944531,98.2678022 C177.563553,97.3491476 177.58256,96.4102194 176.815114,95.8391753 C176.670664,96.1352566 176.532549,96.4182444 176.315028,96.8646894 C176.122427,96.4984947 175.997406,96.2539425 175.866049,96.0127693 C175.843663,95.9717994 175.792557,95.9135124 175.718219,95.84002 C175.078329,109.587315 173.479237,119.968322 173.479237,119.968322 C173.456429,119.978459 173.43531,119.990285 173.41208,120 C171.472557,119.108377 169.956672,117.806633 168.673512,116.20205 C169.946957,113.607432 170.948396,111.013236 171.615741,108.298665 C172.192698,105.951133 172.552557,103.573613 172.532283,101.148787 C172.52806,100.645745 172.571141,100.120739 172.120473,99.6865426 C171.689655,105.637312 170.337227,111.240049 167.281381,116.489261 C165.896852,116.670881 164.512746,116.852922 163.005308,117.050591 C162.797502,115.817271 162.614194,114.732625 162.457917,113.805523 C163.51722,112.811265 164.493317,112.02101 165.319895,111.096865 C167.993497,108.106064 169.586253,104.579698 170.262468,100.63772 C170.386222,99.9146223 170.447466,99.1695619 170.161944,98.180794 C170.013269,98.7767579 169.905143,99.0914234 169.858682,99.4153811 C169.432933,102.384641 168.344064,105.114418 166.810438,107.665955 C165.485887,109.869881 163.812035,111.746892 161.48182,112.920658 C160.217245,112.743685 158.950557,112.895738 157.679646,112.328073 C157.75694,111.335504 157.833389,110.352649 157.897167,109.535364 C159.226365,108.920393 160.430964,108.454941 161.543486,107.8273 C163.423877,106.766307 164.884854,105.210296 166.121553,103.466753 C167.256039,101.867661 168.232136,100.170156 168.630853,98.2086704 C168.707724,97.8306493 168.835702,97.4424914 168.442898,97.0146307 C168.185252,97.56878 167.998143,98.0287408 167.763727,98.4633594 C166.976852,99.9247592 166.265581,101.438533 165.354529,102.819682 C163.879614,105.055286 161.93629,106.79545 159.326466,107.631743 C158.662923,107.844195 157.946162,107.968371 157.250518,107.983577 C155.95511,108.012298 155.045325,107.382544 154.540593,106.052079 C155.071512,105.857367 155.566107,105.663921 156.068305,105.492439 C160.926826,103.832103 164.551182,100.819761 166.499152,95.9726442 C166.918143,94.9306577 167.28476,93.8831803 167.28476,92.7288434 C167.28476,87.1375109 161.538418,85.8796933 161.181515,83.064598 C160.650596,83.4599363 160.286936,83.7142029 159.941015,83.9912776 C158.674327,85.0045429 157.450722,86.075673 156.141797,87.0302289 C154.64872,88.1186761 153.01626,88.9832673 151.111795,89.018324 C150.385741,89.0318398 149.637724,88.8455747 148.933211,88.6377687 C148.499014,88.5093683 148.158584,88.1524657 148.376105,87.5814216 C148.515487,87.5332715 148.62826,87.4855437 148.745678,87.4555554 C148.987696,87.3938894 149.230137,87.3313786 149.475956,87.2882969 C152.988806,86.6716369 155.62355,84.6810076 157.782282,81.9596784 C158.102439,81.5558928 158.346991,81.0883293 158.417526,80.3905743 C157.981218,80.6059829 157.679224,80.7242465 157.408907,80.8931944 C156.034516,81.7531395 154.668149,82.624911 153.299671,83.4941482 C151.242307,84.801383 149.060766,85.8007102 146.620313,86.1272021 C144.742034,86.3785122 142.958789,86.1622588 141.433189,84.9040189 C140.470185,84.1091188 140.184663,83.0113794 140.60999,81.7713014 C141.181878,81.454524 141.717866,81.7244184 142.263145,81.9111059 C143.207564,82.2337965 144.148182,82.5222751 145.175808,82.4914421 C149.171427,82.3723338 152.361165,80.44506 155.340139,78.0295266 C155.467273,77.9264683 155.580046,77.8044035 155.661563,77.6629095 C155.794609,77.4322956 155.886686,77.1830973 156.035783,76.8519594 C154.915235,77.0175284 154.093726,77.4779115 153.305584,78.0282595 C151.261736,79.4558697 148.98474,80.3626979 146.554423,80.8294166 C145.590998,81.0144146 144.566751,80.9823145 143.57925,80.9160024 C142.496716,80.8433548 141.611429,80.2630186 140.909872,79.4491118 C140.118773,78.5304573 140.08076,77.1053813 140.857498,76.2306532 C141.431921,76.4532422 142.045202,76.6863904 142.655105,76.9284083 C143.753689,77.3638717 144.891976,77.6713569 146.066586,77.4411653 C147.408033,77.1788736 148.761728,76.8950411 150.044888,76.4376145 C151.562041,75.896981 152.971489,75.103348 154.301532,73.7137511 C152.673718,74.3321006 151.325091,74.8701998 149.958725,75.3563476 C148.099452,76.0182012 146.190341,76.3953775 144.201401,76.2382559 C142.851084,76.1318187 141.693368,75.6030116 140.823286,74.5698948 C140.141581,73.7602118 139.848879,72.8407125 140.55297,71.7074941 C140.924233,71.8223787 141.304366,71.9229028 141.671828,72.0576388 C142.487846,72.3575214 143.275144,72.7701768 144.113548,72.9678459 C147.190935,73.6934773 150.049534,72.973759 152.759882,71.4887065 C153.028087,71.3417218 153.247719,71.105617 153.594485,70.8268529 C153.308118,70.7909515 153.183519,70.7449131 153.071168,70.7656093 C151.482213,71.0574669 149.90086,71.3962075 148.305569,71.6466729 C146.553579,71.922058 144.796942,71.775918 143.135762,71.1892463 C142.300736,70.8940097 141.505836,70.3504197 140.835113,69.7578347 C139.95785,68.9823636 139.899563,68.0514604 140.512422,66.9875106 C140.821175,67.0555122 141.181878,67.0994386 141.515973,67.2177022 C141.985648,67.3836936 142.43505,67.6067049 142.894166,67.8035292 C145.891725,69.0883784 148.956019,69.0414954 152.050723,68.2381479 C152.467602,68.1300212 152.933476,68.0506156 153.327969,67.4478938 C152.391153,67.4478938 151.615682,67.4187503 150.842745,67.4533846 C148.325843,67.5653126 145.841041,67.3862278 143.452539,66.5389538 C142.680024,66.2652581 141.90033,65.8948397 141.264241,65.3913748 C140.774291,65.0036393 140.392047,64.3814884 140.163545,63.7863692 C139.816357,62.8833424 140.097233,62.2333152 140.929724,61.5892011 C141.202152,61.7847583 141.507526,61.9858064 141.792625,62.2117743 C144.36697,64.2547774 147.41817,64.7979451 150.571161,64.911985 C151.294681,64.9381719 152.131395,64.8439834 152.9377,64.1276441 C151.733945,63.8970302 150.732929,63.7175229 149.737403,63.5122512 C146.971725,62.9420518 144.358522,61.9972104 142.067588,60.2473319 C141.434456,59.7641408 140.902692,59.1521268 140.557193,58.4345204 C139.953204,57.1796595 139.75638,55.8888971 140.392047,54.628123 C141.153157,54.3189482 141.589465,54.6407941 142.006767,55.1121589 C142.527549,55.7013648 143.01792,56.3543487 143.647251,56.8029055 C144.86241,57.6687638 146.149371,58.4387441 147.436754,59.1964757 C148.636707,59.9026781 149.966327,60.2604254 151.347477,60.3689745 C151.803214,60.4048759 152.273312,60.2621149 152.736651,60.2008713 C152.762838,60.0488181 152.760727,60.0597997 152.786913,59.9077466 C152.394109,59.7155683 151.999616,59.5263465 151.608924,59.3307893 C149.751341,58.4003084 147.856167,57.5361396 146.048002,56.5178058 C144.191264,55.472018 142.514033,54.1723858 141.279024,52.3781586 C140.125109,50.7017725 139.965453,48.8999425 140.620549,47.0279992 C140.997303,45.9526455 141.688722,45.5851837 142.851929,45.6645892 C143.508714,46.1220158 143.833094,46.8493367 144.181127,47.557651 C144.850583,48.9185268 145.738405,50.091448 146.905835,51.0844396 C148.885905,52.7692731 151.088564,54.0946698 153.359647,55.329257 C155.370128,56.4223502 157.37554,57.5255804 159.359411,58.6655567 C160.077018,59.0773674 160.782798,59.5461979 161.39101,60.1020367 C162.228148,60.8669486 162.303329,61.7129555 161.783392,62.6974997 C161.423533,63.3787823 160.885011,63.9861502 161.241069,64.9546443 C161.429446,65.466979 161.850971,65.8559817 162.367952,66.0291533 C163.572973,66.4333613 164.70408,66.0502718 165.518831,64.9043823 C166.091143,64.0993453 166.230947,63.7627165 166.630087,62.8892556 C167.135663,61.7834912 167.503125,60.8610354 167.815256,60.0103824 C168.38968,57.8765698 168.597485,55.0441573 167.239989,52.5741382 C165.058026,48.6034389 164.667334,45.4242607 164.667334,45.4242607 C164.540623,47.1728721 162.692332,47.9141312 162.692332,47.9141312 C164.141061,45.9399744 163.458089,42.4055831 163.535382,41.425685 C163.613098,40.4453645 164.540623,40.300914 164.540623,40.300914 C161.814647,40.7304642 160.895571,37.9622519 160.895571,37.9622519 C161.751714,38.6528267 163.779935,38.9206092 165.372269,37.5643795 C166.964604,36.2081498 166.886465,35.3701679 170.351165,34.3670394 C173.816288,33.3639109 175.38497,35.7976062 175.38497,35.7976062 C178.557812,35.9712003 178.688747,37.9622519 178.688747,37.9622519 C174.641599,36.6875396 173.799393,39.0570347 173.799393,39.0570347 C175.619385,39.518685 177.619306,38.9936792 177.619306,38.9936792 C176.611109,40.4065065 173.945955,40.4854896 172.911994,40.6738666 C171.87761,40.8622436 168.815006,42.993522 172.507364,47.1390825 C175.62741,50.6422183 179.071836,59.0532923 180.064828,61.57653 C183.878828,67.3811594 183.326791,74.4550102 181.122442,79.7122482 C180.425532,81.3742737 179.498008,83.2022906 178.356342,84.8199673 C179.383123,85.814226 181.034589,85.8480156 182.522176,85.8847618 C182.076998,86.2657394 181.817663,86.487906 181.511867,86.7493529 C182.433478,87.5117306 183.368605,86.8752192 184.320627,86.8110189 C184.251781,87.3461616 183.777882,87.4901897 183.53882,87.8369554 C183.624984,88.1638697 183.93796,88.1820316 184.177021,88.2208896 C185.137913,88.3780112 186.103028,88.5199275 187.0711,88.622141 C187.756184,88.6943663 188.312022,88.378856 188.769027,87.7972526 C189.324443,87.0893607 189.573219,86.187601 189.52169,85.2892202 C189.518733,85.2338898 189.514932,85.1785593 189.510708,85.1232289 C189.457067,84.4106909 189.570685,83.7927637 190.306875,83.4388178 C191.06334,83.0747349 191.758561,83.090785 192.534454,83.69942 C192.23964,83.7323648 192.056754,83.7526386 191.788127,83.7830492 C191.971857,84.5669677 191.560892,85.1489934 191.136832,85.7424231 C190.919734,86.0461071 190.791756,86.4139912 190.568322,86.8638152 C191.137677,86.8938034 191.489933,86.7810307 191.790238,86.5090245 C192.150098,86.1829549 192.502354,85.8488603 192.854188,85.513921 C192.985968,85.3888995 193.094517,85.2372687 193.235166,85.1240736 C194.501853,84.103628 195.789237,84.627789 196.077293,86.3274054 L196.077293,86.3274054 Z M181.813862,61.57653 C185.030631,66.4722194 185.141714,72.2700908 183.775347,77.1197419 C183.967526,77.4023073 184.1162,77.6164489 184.256427,77.8411496 C184.889559,78.854415 185.500728,79.9259674 186.154979,80.880101 C186.901307,81.9685482 187.716903,82.8335617 188.668503,82.868196 C189.031318,82.8817119 189.405116,82.6958691 189.757372,82.4876408 C189.97447,82.3592403 190.144263,82.0027601 190.035714,81.4312937 C189.966023,81.3831435 189.909848,81.3354157 189.851138,81.3054275 C189.729918,81.2441838 189.60912,81.1812507 189.486211,81.138169 C187.730841,80.5215089 186.413892,78.5308797 185.335159,75.8095505 C185.175081,75.4057649 185.053016,74.9386238 185.017537,74.2404463 C185.235902,74.455855 185.386689,74.5745409 185.521847,74.7434889 C186.20862,75.6030116 186.891592,76.474783 187.575409,77.3440203 C188.603458,78.6516774 189.693594,79.6505822 190.912976,79.9774965 C191.851904,80.2288066 192.743105,80.0121309 193.505483,78.753891 C193.986562,77.9594132 194.129323,76.8616739 193.916871,75.6215959 C193.630926,75.3043961 193.363144,75.5747128 193.090715,75.7609779 C192.618928,76.0840909 192.148408,76.3721472 191.635229,76.3417365 C189.638264,76.2222059 188.04424,74.2953544 186.555808,71.8793987 C186.492031,71.7763404 186.435855,71.6546979 186.394885,71.5127816 C186.328573,71.2821676 186.282535,71.0333918 186.208198,70.7018314 C186.767838,70.8678228 187.178804,71.3277836 187.572453,71.8785539 C188.593743,73.3061641 189.731608,74.2129923 190.946343,74.6792887 C191.427423,74.8642867 191.939335,74.8321865 192.432663,74.7658745 C192.973719,74.6932269 193.416362,74.1128906 193.766929,73.2989839 C194.162268,72.3807517 194.181274,70.9552533 193.793116,70.0809477 C193.505905,70.3035366 193.199687,70.5362624 192.894736,70.7782804 C192.345655,71.2141661 191.776723,71.521229 191.190051,71.2914598 C190.519327,71.0287457 189.843113,70.7449131 189.201533,70.2874866 C188.443802,69.7468531 187.739289,68.9532201 187.074901,67.5640455 C187.888385,68.1819727 188.562065,68.7200719 189.245037,69.206642 C190.173829,69.8680733 191.127962,70.2452496 192.122221,70.0885503 C192.796746,69.9821131 193.375393,69.453306 193.810011,68.4201893 C194.150864,67.6100838 194.297004,66.691007 193.94517,65.5577885 C193.759749,65.6726732 193.569683,65.7727748 193.385952,65.9079332 C192.978365,66.2078158 192.585139,66.6204712 192.165725,66.8181403 C190.627876,67.5433494 189.199422,66.8236311 187.845304,65.3385786 C187.71099,65.1915939 187.601174,64.9554891 187.428002,64.676725 C187.571186,64.6408235 187.633274,64.5952076 187.689449,64.6159037 C188.483505,64.9077613 189.273759,65.2465019 190.071193,65.4969673 C190.946766,65.7719301 191.82445,65.6257901 192.654407,65.0391183 C193.071709,64.7443041 193.469159,64.2007141 193.804098,63.6077068 C194.242518,62.8322357 194.271662,61.9017548 193.965443,60.8373827 C193.811278,60.9058066 193.630926,60.9493107 193.463668,61.0675743 C193.229253,61.233988 193.004552,61.4565769 192.775205,61.6534013 C191.277059,62.9386729 189.745968,62.8913674 188.19925,62.0884423 C187.991021,61.9798932 187.758295,61.9009101 187.561049,61.2977659 C188.029457,61.2977659 188.41677,61.2690447 188.803239,61.3032567 C190.061056,61.4151847 191.302824,61.2360999 192.496018,60.3892482 C192.882065,60.1151302 193.271912,59.7447118 193.589957,59.2412469 C193.834509,58.8535113 194.02542,58.2317828 194.139882,57.6366637 C194.313476,56.7332145 194.172827,56.0831872 193.756793,55.4390731 C193.62079,55.6350528 193.468314,55.8356785 193.325553,56.0620687 C192.039437,58.1050719 190.514259,58.6478172 188.938819,58.7618571 C188.577271,58.788044 188.159124,58.6938555 187.756184,57.9775162 C188.358061,57.7469022 188.858147,57.5678174 189.355276,57.3625456 C190.737693,56.7923463 192.04366,55.8470825 193.188283,54.0976264 C193.504638,53.6140129 193.770308,53.0024213 193.943058,52.2848148 C194.245052,51.0295315 194.343042,49.7387691 194.02542,48.477995 C193.645287,48.1688203 193.427344,48.4906661 193.218693,48.9624533 C192.958514,49.5512369 192.713539,50.2042208 192.398873,50.6527776 C191.791506,51.5190582 191.148659,52.2890385 190.504967,53.0467701 C189.905624,53.7525502 189.241236,54.1107198 188.551084,54.2192689 C188.330607,54.2539032 188.103372,54.1212791 187.879093,54.0570789 C187.843614,53.908827 187.847416,53.9252995 187.811514,53.7770476 C188.014674,53.5781114 188.218256,53.3829765 188.420149,53.1806614 C189.348518,52.2506029 190.295471,51.3864341 191.198921,50.3676779 C192.126867,49.3218901 192.965271,48.0222579 193.582354,46.2280306 C194.158889,44.5520669 194.238717,42.750237 193.91138,40.8778713 C193.723425,39.8029399 193.377504,39.4354781 192.796323,39.5144613 C192.468142,39.9718878 192.305952,40.6992088 192.131936,41.4075231 C191.797419,42.7683989 191.35393,43.9413201 190.770638,44.934734 C189.781025,46.6191451 188.680329,47.9445419 187.545421,49.1795514 C186.540603,50.2726447 185.538319,51.3754525 184.547017,52.5154288 C184.188425,52.9276618 183.835746,53.3964924 183.532062,53.9519088 C183.113494,54.7168206 183.075903,55.5632499 183.33566,56.5473717 C183.51559,57.2290767 183.78464,57.8364446 183.606822,58.8049388 C183.512633,59.3168511 183.302293,59.7058538 183.043803,59.8794478 C182.770952,60.0623339 182.417006,60.2355056 182.110788,60.3710863 C181.742059,60.5336987 181.569309,60.9594476 181.718406,61.334512 C181.752196,61.4202531 181.784296,61.5013481 181.813862,61.57653 L181.813862,61.57653 Z M257.095381,54.0570789 C257.13086,53.908827 257.127059,53.9252995 257.16296,53.7770476 C256.9598,53.5781114 256.756218,53.3829765 256.554325,53.1806614 C255.625956,52.2506029 254.679003,51.3864341 253.775554,50.3676779 C252.847607,49.3218901 252.009203,48.0222579 251.39212,46.2280306 C250.815586,44.5520669 250.735758,42.750237 251.063094,40.8778713 C251.251471,39.8029399 251.59697,39.4354781 252.178151,39.5144613 C252.506332,39.9718878 252.668522,40.6992088 252.842539,41.4075231 C253.177056,42.7683989 253.620544,43.9413201 254.204259,44.934734 C255.193449,46.6191451 256.294145,47.9445419 257.429053,49.1795514 C258.433871,50.2726447 259.436155,51.3754525 260.427457,52.5154288 C260.786049,52.9276618 261.138728,53.3964924 261.442412,53.9519088 C261.86098,54.7168206 261.898571,55.5632499 261.638814,56.5473717 C261.458884,57.2290767 261.189835,57.8364446 261.367652,58.8049388 C261.461841,59.3168511 261.672603,59.7058538 261.930671,59.8794478 C262.203522,60.0623339 262.557468,60.2355056 262.863687,60.3710863 C263.232415,60.5336987 263.405165,60.9594476 263.256491,61.334512 C263.222279,61.4202531 263.190178,61.5013481 263.160613,61.57653 C259.944266,66.4722194 259.83276,72.2700908 261.199127,77.1197419 C261.006949,77.4023073 260.858274,77.6164489 260.718048,77.8411496 C260.085337,78.854415 259.473746,79.9259674 258.819495,80.880101 C258.073167,81.9685482 257.257571,82.8335617 256.305972,82.868196 C255.943156,82.8817119 255.569359,82.6958691 255.217102,82.4876408 C255.000004,82.3592403 254.830211,82.0027601 254.93876,81.4312937 C255.008451,81.3831435 255.064627,81.3354157 255.123336,81.3054275 C255.244556,81.2441838 255.365776,81.1812507 255.488264,81.138169 C257.244055,80.5215089 258.560582,78.5308797 259.639315,75.8095505 C259.799393,75.4057649 259.921458,74.9386238 259.956937,74.2404463 C259.738572,74.455855 259.587786,74.5745409 259.452627,74.7434889 C258.765854,75.6030116 258.082882,76.474783 257.399065,77.3440203 C256.371017,78.6516774 255.28088,79.6505822 254.061498,79.9774965 C253.12257,80.2288066 252.231369,80.0121309 251.469414,78.753891 C250.987912,77.9594132 250.845151,76.8616739 251.058026,75.6215959 C251.343548,75.3043961 251.61133,75.5747128 251.883759,75.7609779 C252.355968,76.0840909 252.826066,76.3721472 253.339246,76.3417365 C255.33621,76.2222059 256.930234,74.2953544 258.418666,71.8793987 C258.482444,71.7763404 258.538619,71.6546979 258.579589,71.5127816 C258.645901,71.2821676 258.691939,71.0333918 258.766276,70.7018314 C258.206636,70.8678228 257.796093,71.3277836 257.402022,71.8785539 C256.380731,73.3061641 255.242867,74.2129923 254.028131,74.6792887 C253.547052,74.8642867 253.035139,74.8321865 252.541811,74.7658745 C252.000755,74.6932269 251.558112,74.1128906 251.207545,73.2989839 C250.812207,72.3807517 250.7932,70.9552533 251.18178,70.0809477 C251.468569,70.3035366 251.77521,70.5362624 252.079739,70.7782804 C252.628819,71.2141661 253.197752,71.521229 253.784423,71.2914598 C254.455147,71.0287457 255.131361,70.7449131 255.772941,70.2874866 C256.530672,69.7468531 257.235185,68.9532201 257.899573,67.5640455 C257.086089,68.1819727 256.412409,68.7200719 255.729437,69.206642 C254.800645,69.8680733 253.846512,70.2452496 252.852675,70.0885503 C252.177728,69.9821131 251.599082,69.453306 251.164463,68.4201893 C250.823611,67.6100838 250.677471,66.691007 251.029305,65.5577885 C251.214725,65.6726732 251.404792,65.7727748 251.588522,65.9079332 C251.996109,66.2078158 252.389336,66.6204712 252.808749,66.8181403 C254.346598,67.5433494 255.775053,66.8236311 257.129593,65.3385786 C257.263484,65.1915939 257.3733,64.9554891 257.546472,64.676725 C257.403289,64.6408235 257.3412,64.5952076 257.285025,64.6159037 C256.49097,64.9077613 255.700716,65.2465019 254.903281,65.4969673 C254.027709,65.7719301 253.150024,65.6257901 252.320067,65.0391183 C251.902766,64.7443041 251.505316,64.2007141 251.170376,63.6077068 C250.731956,62.8322357 250.702813,61.9017548 251.009031,60.8373827 C251.163618,60.9058066 251.343548,60.9493107 251.510806,61.0675743 C251.745222,61.233988 251.969922,61.4565769 252.199269,61.6534013 C253.697415,62.9386729 255.228506,62.8913674 256.775225,62.0884423 C256.983453,61.9798932 257.216179,61.9009101 257.413426,61.2977659 C256.94544,61.2977659 256.557704,61.2690447 256.171236,61.3032567 C254.913418,61.4151847 253.672073,61.2360999 252.478456,60.3892482 C252.09241,60.1151302 251.702562,59.7447118 251.384518,59.2412469 C251.139966,58.8535113 250.949054,58.2317828 250.834592,57.6366637 C250.661421,56.7332145 250.801647,56.0831872 251.217682,55.4390731 C251.353685,55.6350528 251.50616,55.8356785 251.648921,56.0620687 C252.935038,58.1050719 254.460215,58.6478172 256.035655,58.7618571 C256.397204,58.788044 256.81535,58.6938555 257.218291,57.9775162 C256.616836,57.7469022 256.116328,57.5678174 255.619198,57.3625456 C254.236782,56.7923463 252.930814,55.8470825 251.786192,54.0976264 C251.469836,53.6140129 251.204166,53.0024213 251.031417,52.2848148 C250.729422,51.0295315 250.631432,49.7387691 250.949054,48.477995 C251.329187,48.1688203 251.54713,48.4906661 251.755781,48.9624533 C252.015961,49.5512369 252.260935,50.2042208 252.575601,50.6527776 C253.182969,51.5190582 253.825816,52.2890385 254.469507,53.0467701 C255.06885,53.7525502 255.733238,54.1107198 256.423813,54.2192689 C256.643868,54.2539032 256.871103,54.1212791 257.095381,54.0570789 L257.095381,54.0570789 Z" id="logo"></path>
        </g>
    </g>
</svg>